<?xml version="1.0" standalone="no"?>
<!DOCTYPE svg PUBLIC "-//W3C//DTD SVG 20010904//EN"
 "http://www.w3.org/TR/2001/REC-SVG-20010904/DTD/svg10.dtd">
<svg version="1.0" xmlns="http://www.w3.org/2000/svg"
 width="225.000000pt" height="225.000000pt" viewBox="0 0 225.000000 225.000000"
 preserveAspectRatio="xMidYMid meet">
<metadata>
Created by potrace 1.11, written by Peter Selinger 2001-2013
</metadata>
<g transform="translate(0.000000,225.000000) scale(0.100000,-0.100000)"
fill="#000000" stroke="none">
<path d="M335 2236 c-71 -22 -119 -53 -168 -105 -112 -119 -136 -283 -65 -425
11 -22 42 -63 69 -92 l50 -52 -46 -135 c-49 -148 -101 -385 -111 -513 -16
-196 72 -404 229 -537 112 -96 282 -176 456 -213 55 -12 85 -23 92 -35 5 -10
34 -36 64 -57 146 -105 349 -91 475 33 38 38 55 46 115 59 390 83 637 306 684
616 20 131 -28 414 -112 658 l-42 124 56 57 c74 76 102 146 102 256 0 104 -27
176 -94 250 -128 139 -328 163 -488 58 l-53 -35 -57 25 c-224 99 -494 103
-707 11 l-82 -35 -61 40 c-91 59 -211 77 -306 47z"/>
</g>
</svg>
